<?xml version="1.0" encoding="UTF-8"?>
<svg id="logosandtypes_com" data-name="logosandtypes com" xmlns="http://www.w3.org/2000/svg" xmlns:xlink="http://www.w3.org/1999/xlink" viewBox="0 0 150 150">
  <defs>
    <style>
      .cls-1 {
        fill: url(#linear-gradient);
        fill-rule: evenodd;
      }

      .cls-2 {
        fill: none;
      }
    </style>
    <linearGradient id="linear-gradient" x1="13.68" y1="132.98" x2="144.67" y2="6.22" gradientTransform="translate(0 150.11) scale(1 -1)" gradientUnits="userSpaceOnUse">
      <stop offset="0" stop-color="#00ff15"/>
      <stop offset="1" stop-color="aqua"/>
    </linearGradient>
  </defs>
  <path class="cls-2" d="M0,0H150V150H0V0Z"/>
  <path class="cls-1" d="M84.41,15.42l-.6-.33c-5.81-3.11-12.84-3-18.56,.33L26.42,38.08l-.53,.32c-10.91,6.64-10.64,23.43,.53,29.68,0,0,65.15,38,65.15,38,1.04,.61,1.56,.91,2.13,.91,.57,0,1.09-.3,2.13-.91,0,0,7.32-4.27,7.32-4.27,2.79-1.53,2.79-2.12,0-3.65,0,0-70.34-41.03-70.34-41.03l-.3-.19c-2.79-1.8-2.63-6.33,.3-7.92,0,0,38.83-22.65,38.83-22.65l.4-.21c1.9-.93,4.14-.86,5.98,.21l38.02,22.18,.36,.22c1.74,1.17,2.79,3.14,2.79,5.25v45c-.15,2.09-1.32,3.99-3.14,5.05l-38.02,22.18-.4,.21c-1.9,.93-4.14,.86-5.98-.21l-38.02-22.18-.36-.22c-1.74-1.17-2.79-3.14-2.79-5.25,0,0,0-15.95,0-15.95,.01-2.35-.06-2.48-2.1-3.65,0,0-7.4-4.32-7.4-4.32-1.41-.82-2.12-1.23-2.65-.93-.53,.3-.53,1.12-.53,2.75v22.72c.23,6.52,3.77,12.49,9.43,15.79l38.02,22.18,.6,.33c5.81,3.11,12.84,3,18.56-.33l38.02-22.18,.54-.33c5.52-3.47,8.89-9.54,8.89-16.09V53.39c-.23-6.52-3.77-12.49-9.43-15.79L84.41,15.42Zm51.21,102.01c-.57,0-1.09,.3-2.13,.91l-7.32,4.27c-1.39,.81-2.09,1.22-2.09,1.82s.7,1.01,2.09,1.82l19.41,11.32c1.41,.82,2.12,1.23,2.65,.93,.53-.3,.53-1.12,.53-2.75v-8.57c0-1.18,0-1.78-.28-2.27-.28-.49-.79-.79-1.82-1.38l-8.91-5.2c-1.04-.61-1.56-.91-2.13-.91Z"/>
</svg>